<svg id="Capa_1" enable-background="new 0 0 512 512" height="512" viewBox="0 0 512 512" width="512" xmlns="http://www.w3.org/2000/svg"><g><path d="m422 465.993 90-74.986-90-75v45l-226 .008v59.992h226z" fill="#ec5569"/><path d="m91 256.007c0-57.891 47.109-105 105-105l30-32.813-30-27.188c-91.126 0-165 73.874-165 165s73.874 165 165 165l30-26.719-30-33.281c-57.891.001-105-47.108-105-104.999z" fill="#a19ce4"/><path d="m196 421.007 30-26.719-30-33.281c-57.891 0-105-47.109-105-105h-60c0 91.126 73.874 165 165 165z" fill="#7984eb"/><path d="m211 91.764v-45.757l-90 75 90 74.985v-43.469c50.75 7.357 90 50.729 90 103.484 0 57.891-47.109 105-105 105l-30 29.996 30 30.004c91.126 0 165-73.874 165-165 0-86.061-65.914-156.656-150-164.243z" fill="#7fe881"/><path d="m196 361.007-30 29.996 30 30.004c91.126 0 165-73.874 165-165h-60c0 57.891-47.109 105-105 105z" fill="#5bc980"/><path d="m0 361.018h196v59.989h-196z" fill="#ffb64c"/></g></svg>