<svg version="1.1" id="Layer_1" xmlns="http://www.w3.org/2000/svg" x="0" y="0" viewBox="0 0 500 500" xml:space="preserve"><style>.st0{fill:#8c3123}.st1{fill:#e05243}</style><g id="XMLID_1_"><path id="XMLID_2_" class="st0" d="M123.3 130.8L99 143v213.5l24.3 12.1.2-.2V131l-.2-.2"/><path id="XMLID_3_" class="st1" d="M253.5 337.6l-130.2 31V130.8l130.2 30.3v176.5"/><path id="XMLID_4_" class="st0" d="M194.8 289.1l55.2 7 .3-.8.4-90.5-.7-.7-55.2 6.9v78.1"/><path id="XMLID_5_" class="st0" d="M250 338l126.6 30.7.2-.3V131l-.2-.2L250 161.5V338"/><path id="XMLID_6_" class="st1" d="M305.2 289.1l-55.2 7v-92l55.2 6.9v78.1"/><path id="XMLID_7_" fill="#5e1f18" d="M305.2 173.2L250 183.3l-55.2-10.1 55.1-14.4 55.3 14.4"/><path id="XMLID_8_" fill="#f2b0a9" d="M305.2 326.8L250 316.6l-55.2 10.2 55.1 15.4 55.3-15.4"/><path id="XMLID_9_" class="st0" d="M194.8 173.2l55.2-13.6.4-.2V67.9l-.4-.4-55.2 27.6v78.1"/><path id="XMLID_10_" class="st1" d="M305.2 173.2L250 159.6V67.5l55.2 27.6v78.1"/><path id="XMLID_11_" class="st0" d="M250 432.5l-55.2-27.6v-78.1l55.2 13.6.8 1-.2 89.5-.6 1.6"/><path id="XMLID_12_" class="st1" d="M250 432.5l55.2-27.6v-78.1L250 340.4v92.1"/><path id="XMLID_13_" class="st1" d="M376.6 130.8L401 143v213.5l-24.4 12.2V130.8"/></g></svg>