<svg xmlns="http://www.w3.org/2000/svg" fill="#E0234E" viewBox="0 0 24 24" xmlns:v="https://vecta.io/nano"><path d="M14.131.047a1.51 1.51 0 0 0-.483.087 1.36 1.36 0 0 1 .576.806l.025.117a.681.681 0 0 1 .013.112c.024.545-.143.614-.26.936-.18.415-.13.861.086 1.22a.74.74 0 0 0 .074.137c-.235-1.568 1.073-1.803 1.314-2.293.019-.428-.334-.713-.613-.911a1.37 1.37 0 0 0-.732-.21zM16.102.4c-.024.143-.006.106-.012.18l-.012.161-.044.149c-.012.05-.03.1-.05.149l-.067.142c-.02.025-.031.05-.05.075l-.037.055a2.152 2.152 0 0 1-.093.124c-.037.038-.068.081-.112.112v.006l-.118.1c-.13.099-.278.173-.415.266-.043.03-.087.056-.124.093a.906.906 0 0 0-.118.099c-.043.037-.074.074-.111.118-.031.037-.068.08-.093.124a1.582 1.582 0 0 0-.087.13l-.068.142-.05.143a2.007 2.007 0 0 0-.043.155c-.006.025-.006.056-.012.08s-.007.05-.013.075l-.006.155a.69.69 0 0 0 .006.111c0 .05.006.1.019.155.006.05.018.1.03.15.02.049.032.098.05.148.013.03.031.062.044.087l-1.426-.552-.719-.186-.39-.093a11.57 11.57 0 0 0-1.128-.167c-.013 0-.019-.006-.031-.006A11.082 11.082 0 0 0 8.9 2.855c-.378.025-.756.074-1.134.136a12.45 12.45 0 0 0-.837.174l-.279.074-.266.118-.205.093c-.012.006-.024.006-.03.012l-.174.087a2.738 2.738 0 0 0-.236.118c-.043.018-.086.043-.124.062a.559.559 0 0 1-.055.03l-.162.094a1.56 1.56 0 0 0-.148.093l-.124.086c-.006.007-.013.007-.019.013l-.118.087-.012.012-.093.074c-.012.007-.025.019-.037.025l-.093.08c-.006.013-.019.02-.025.025l-.111.106a1.742 1.742 0 0 0-.124.118 1.454 1.454 0 0 0-.106.112c-.012.012-.03.024-.043.036a1.374 1.374 0 0 1-.106.112c-.006.012-.018.019-.024.03l-.143.15-.018.018-.317.304c-.111.1-.229.192-.347.273a3.777 3.777 0 0 1-.762.421c-.13.056-.267.106-.403.149-.26.056-.527.161-.756.18-.05 0-.105.012-.155.018l-.155.037-.149.056c-.05.019-.099.044-.148.068l-.137.087a1.011 1.011 0 0 0-.124.106c-.043.03-.087.074-.124.111l-.105.124c-.031.05-.068.093-.093.143a1.092 1.092 0 0 0-.087.142l-.068.161-.056.161-.03.15c-.019.074-.019.148-.026.185C.006 7.95 0 7.986 0 8.03a.657.657 0 0 0 .074.31v.006a1.13 1.13 0 0 0 .069.112l.08.111.106.1a.906.906 0 0 0 .117.099c.149.13.186.173.378.272.031.019.062.031.1.05.018.019.018.025.024.037a1.272 1.272 0 0 0 .08.298c.02.037.032.074.05.111.007.013.013.025.02.031l.073.137.093.13.106.118c.037.037.074.068.118.105l.124.093a.986.986 0 0 0 .136.08c.043.025.093.05.142.069a.73.73 0 0 0 .124.043c.007.006.013.006.025.012l.08.019c-.018.335-.024.65.026.762.055.124.328-.254.6-.688-.036.428-.061.93 0 1.079.069.155.44-.329.763-.862a7.16 7.16 0 0 1 8.826 6.31c-.08-.67-.905-1.041-1.283-.948-.186.458-.502 1.047-1.01 1.413a3.98 3.98 0 0 0-.062-1.24 4.009 4.009 0 0 1-.769 1.562c-.588.043-1.177-.242-1.487-.67-.025-.018-.031-.055-.05-.08l-.05-.13a.515.515 0 0 1-.037-.13c-.006-.044-.006-.087-.006-.137v-.093a.992.992 0 0 1 .031-.13l.044-.13c.024-.043.043-.087.074-.13.105-.298.105-.54-.087-.682a.706.706 0 0 0-.118-.062c-.024-.006-.055-.018-.08-.025l-.05-.018a.847.847 0 0 0-.13-.031.472.472 0 0 0-.13-.019 1.01 1.01 0 0 0-.136-.012c-.031 0-.062.006-.093.006a.484.484 0 0 0-.137.019 1.02 1.02 0 0 0-.13.024 1.068 1.068 0 0 0-.13.044l-.124.056-.118.062c-1.444.942-.582 3.148.403 3.787-.372.068-.75.148-.855.229l-.013.012a5.93 5.93 0 0 0 .837.416l1.004.297v.006a5.996 5.996 0 0 0 1.562.112c2.746-.192 4.996-2.281 5.405-5.033l.037.161.056.347v.006c.012.056.018.112.025.162v.024l.012.162.012.204v.1c0 .03.007.067.007.098 0 .038-.007.075-.007.112v.087l-.006.124c0 .025 0 .05-.006.08l-.006.137c-.006.018-.006.037-.006.055l-.02.143c0 .019 0 .037-.005.056l-.025.18v.012l-.037.174v.018l-.037.167c0 .007-.007.02-.007.025a1.663 1.663 0 0 1-.043.168v.018l-.05.174-.062.198-.068.18-.068.18-.074.18h-.007l-.08.173a.302.302 0 0 1-.019.043c-.006.006-.006.013-.012.019a5.867 5.867 0 0 1-1.742 2.082c-.05.031-.099.069-.149.106-.012.012-.03.018-.043.03a2.603 2.603 0 0 1-.136.094l.018.037h.007l.26-.037h.006l.483-.087c.044-.006.093-.019.137-.031l.087-.019.13-.024c.037-.013.074-.02.111-.031.62-.15 1.221-.354 1.798-.595a9.926 9.926 0 0 1-3.85 3.142c.714-.05 1.426-.167 2.114-.366a9.903 9.903 0 0 0 5.857-4.68 9.893 9.893 0 0 1-1.667 3.986 9.758 9.758 0 0 0 1.655-1.376 9.824 9.824 0 0 0 2.61-5.268c.21.98.272 1.99.18 2.987 4.474-6.241.371-12.712-1.346-14.416-.006-.013-.012-.019-.012-.031-.013.074-.019.148-.025.223a8.34 8.34 0 0 1-.062.415c-.03.136-.068.273-.105.41a4.92 4.92 0 0 1-.15.396 5.322 5.322 0 0 1-.185.378 4.735 4.735 0 0 1-.477.688c-.093.111-.192.21-.292.31a3.994 3.994 0 0 1-.18.155l-.142.124a3.459 3.459 0 0 1-.347.241 4.295 4.295 0 0 1-.366.211c-.13.062-.26.118-.39.174a4.364 4.364 0 0 1-.818.223c-.143.025-.285.037-.422.05a4.914 4.914 0 0 1-.297.012 4.66 4.66 0 0 1-.422-.025 3.137 3.137 0 0 1-.421-.062 3.136 3.136 0 0 1-.415-.105h-.007c.137-.013.273-.025.41-.05a4.493 4.493 0 0 0 .818-.223 3.84 3.84 0 0 0 .39-.174c.13-.062.248-.13.372-.204.118-.08.235-.161.347-.248a3.37 3.37 0 0 0 .316-.279c.105-.093.198-.198.291-.304a5.82 5.82 0 0 0 .26-.334c.013-.019.026-.044.038-.062l.18-.298a4.272 4.272 0 0 0 .334-.775c.044-.13.075-.266.106-.403.025-.142.05-.278.062-.415.012-.142.025-.285.025-.421 0-.1-.007-.199-.013-.298a6.726 6.726 0 0 0-.05-.415 4.493 4.493 0 0 0-.092-.415c-.044-.13-.087-.267-.137-.397s-.111-.26-.173-.384c-.069-.124-.137-.248-.211-.366a6.843 6.843 0 0 0-.248-.34l-.285-.317a3.878 3.878 0 0 0-.161-.155 11.49 11.49 0 0 0-.862-.607 1.154 1.154 0 0 0-.124-.062 2.415 2.415 0 0 0-.589-.26z"/></svg>