<svg xmlns="http://www.w3.org/2000/svg" fill="#000000" viewBox="0 0 24 24" xmlns:v="https://vecta.io/nano"><path d="M11.573 0l-.358.007-.364.033C7.442.347 4.249 2.186 2.226 5.012 1.1 6.584.38 8.367.108 10.255.012 10.914 0 11.109 0 12.002s.012 1.088.108 1.748a12.05 12.05 0 0 0 8.209 9.695 12.68 12.68 0 0 0 2.534.526 22.04 22.04 0 0 0 2.299 0c1.612-.178 2.977-.577 4.324-1.264.206-.106.246-.134.218-.157-.019-.014-.899-1.194-1.954-2.62l-1.919-2.592-2.405-3.558-2.421-3.556c-.009-.003-.019 1.579-.024 3.509l-.052 3.596c-.061.115-.108.162-.206.213-.075.037-.141.044-.495.044H7.81l-.108-.068a.438.438 0 0 1-.157-.171l-.049-.106.005-4.703.007-4.705.073-.091c.038-.049.117-.112.174-.143.096-.047.134-.052.54-.052.479 0 .558.019.683.155.035.038 1.337 1.999 2.895 4.361a10760.433 10760.433 0 0 0 4.734 7.171l1.9 2.878.096-.063c.852-.554 1.753-1.342 2.466-2.163 1.518-1.743 2.496-3.868 2.825-6.134.096-.659.108-.854.108-1.748s-.012-1.088-.108-1.748A12.05 12.05 0 0 0 15.684.56C14.916.312 14.1.14 13.185.037A33.12 33.12 0 0 0 11.573 0zm4.069 7.217c.347 0 .408.005.486.047.113.056.204.164.237.277.019.061.023 1.365.019 4.304l-.007 4.218-.744-1.14-.746-1.14v-3.066l.023-3.15c.037-.131.12-.235.232-.295.096-.049.131-.054.5-.054z"/></svg>