<svg width="380" height="400" fill="none" xmlns="http://www.w3.org/2000/svg"><path fill-rule="evenodd" clip-rule="evenodd" d="M211.738 89.49c4.608-5.409 7.726-12.037 7.205-19.465-1.501-21.4-31.292-16.692-37.086-5.891-5.795 10.801-5.107 38.199 2.383 40.129 2.986.77 9.349-1.116 15.825-5.019L196 128h24l-8.262-38.51z" fill="#915B3C"/><path fill-rule="evenodd" clip-rule="evenodd" d="M213.582 94.308c3.012-13.402 11.593-22.537 10.283-28.526-.874-3.993-3.203-6.477-6.986-7.45-1.957-7.916-8.269-11.284-18.935-10.102-15.999 1.774-25.763 8.418-21.546 23.038 3.876 0 8.556-1.402 15.026 1 2.054.762 3.522 3.125 4.406 7.09h2.924c2.838-4.705 5.637-6.434 8.395-5.187 2.759 1.247 3.386 4.276 1.881 9.088l1.441 11.049h3.111z" fill="#191847"/><path fill-rule="evenodd" clip-rule="evenodd" d="M287 253H172c-8.837 0-16 7.163-16 16v92c0 8.837 7.163 16 16 16h115c8.837 0 16-7.163 16-16v-92c0-8.837-7.163-16-16-16zm-16 28a4 4 0 014 4v60a4 4 0 01-4 4h-83a4 4 0 01-4-4v-60a4 4 0 014-4h83z" fill="#C5CFD6"/><path fill-rule="evenodd" clip-rule="evenodd" d="M56.841 372c19.716-24.076 33.056-41.925 40.02-53.546 11.926-19.899 21.686-37.606 24.766-44.37 7.345-16.129-16.909-23.681-22.398-16.158C90.921 269.312 73.178 305.143 46 365.417L56.841 372z" fill="#B28B67"/><path fill-rule="evenodd" clip-rule="evenodd" d="M97.242 365l36.693-92.363c7.848-16.837-30.051-27.905-35.818-20.069C85.023 270.357 53.9 340.534 50 345.834L97.242 365z" fill="#2F3676"/><path fill-rule="evenodd" clip-rule="evenodd" d="M194.967 346.477c-7.148-10.426-33.146-45.503-47.306-60.016-4.069-4.17-8.04-8.173-11.795-11.904-11.162-11.087-33.39 7.549-22.248 17.648 27.747 25.15 68.231 59.102 71.613 62.129 4.741 4.243 14.228-1.305 9.736-7.857z" fill="#915B3C"/><path fill-rule="evenodd" clip-rule="evenodd" d="M193.295 341.767c2.463 2.027 4.064 3.683 4.806 4.967.901 1.561 1.957 3.991 3.166 7.287l-48.845 28.201c-3.692-3.464-4.267-6.152-1.726-8.066a308.716 308.716 0 006.292-4.841l16.86-23.228a.999.999 0 011.419-.205l3.503 2.697c3.214-.28 5.612-.877 7.195-1.791 1.286-.743 2.762-2.288 4.428-4.635a2.001 2.001 0 012.902-.386zM65.322 368.402c1.119 2.986 1.678 5.221 1.678 6.704 0 1.803-.3 4.434-.901 7.894H9.697c-1.466-4.845-.62-7.461 2.538-7.848 3.158-.386 5.781-.735 7.87-1.046l26.215-11.687a1 1 0 011.32.506l.012.026 1.685 4.088c2.923 1.364 5.299 2.046 7.126 2.046 1.485 0 3.536-.6 6.152-1.799v-.001a2 2 0 012.707 1.117z" fill="#E4E4E4"/><path fill-rule="evenodd" clip-rule="evenodd" d="M147.138 277.25c30.497-4.968 50.924-8.366 61.281-10.192 29.524-5.206 38.133-21.093 33.043-55.756h-54.396c-7.199 2.079-37.276 14.935-90.234 38.57-9.528 4.73-7.753 18.676-6.012 23.27.072.187 16.134 27.711 48.188 82.571l44.498-28.347-36.452-46.776c-.962-1.939-.934-3.052.084-3.34z" fill="#5C63AB"/><path fill-rule="evenodd" clip-rule="evenodd" d="M143.219 198.212l-31.899 23.423c-8.651 2.335-15.879 5.239-21.684 8.714-1.37 1.249-3.028 3.779 2.659 3.342 5.686-.437 11.687-.641 12.472 1.298.784 1.94-2.657 4.259-1.071 6.876 1.058 1.745 6.053-2.63 14.987-13.124l31.587-13.098-7.051-17.431zm122.473.808l-20.897.082c12.903 41.654 19.869 63.755 20.897 66.304 2.314 5.734-2.583 14.468-4.677 19.161 6.82 3.052 6.094-8.25 14.697-4.247 7.853 3.653 13.826 10.273 22.899 4.675 1.115-.689 2.338-3.28-.616-5.305-7.357-5.045-17.96-13.875-19.393-16.782-1.954-3.963-6.257-25.259-12.91-63.888z" fill="#915B3C"/><path fill-rule="evenodd" clip-rule="evenodd" d="M206.305 111.332l-8.647-1.483c-32.083 27.715-45.261 80.96-84.588 109.166l9.466 11.733c68.224-8.447 85.134-73.393 83.769-119.416z" fill="#E87613"/><path fill-rule="evenodd" clip-rule="evenodd" d="M244 220h-76.511c-3.497 0-2.838-5.048-2.332-7.596 5.832-29.4 28.602-61.092 28.602-102.943L215.828 106c18.255 29.358 24.567 65.505 28.172 114z" fill="#DDE3E9"/><path fill-rule="evenodd" clip-rule="evenodd" d="M243.385 134.858c3.205-.921 5.744-3.07 7.615-6.447 8.066-14.555 5.153-22.569-3.467-25.203-8.621-2.634-16.308 2.792-30.043 2.792-.747 0-1.431.047-2.053.141l-6.909.394c-19.822 67.18-25.289 112.002-16.4 134.465h60.22c3.568 8.32 6.982 15.32 10.243 21H279c1.544-49.933-10.327-92.314-35.615-127.142z" fill="#FF9B21"/><path fill-rule="evenodd" clip-rule="evenodd" d="M239.235 206.498c-1.894 15.846-4.972 27.347-9.235 34.502h22.348c-4.162-9.705-8.533-21.206-13.113-34.502z" fill="#000" fill-opacity=".1"/></svg>